<?xml version="1.0" encoding="utf-8" standalone="no"?>
<!DOCTYPE svg PUBLIC "-//W3C//DTD SVG 1.1//EN"
  "http://www.w3.org/Graphics/SVG/1.1/DTD/svg11.dtd">
<svg xmlns:xlink="http://www.w3.org/1999/xlink" width="277.04375pt" height="266.815469pt" viewBox="0 0 277.04375 266.815469" xmlns="http://www.w3.org/2000/svg" version="1.1">
 <metadata>
  <rdf:RDF xmlns:dc="http://purl.org/dc/elements/1.1/" xmlns:cc="http://creativecommons.org/ns#" xmlns:rdf="http://www.w3.org/1999/02/22-rdf-syntax-ns#">
   <cc:Work>
    <dc:type rdf:resource="http://purl.org/dc/dcmitype/StillImage"/>
    <dc:date>2024-05-28T15:17:39.363997</dc:date>
    <dc:format>image/svg+xml</dc:format>
    <dc:creator>
     <cc:Agent>
      <dc:title>Matplotlib v3.8.3, https://matplotlib.org/</dc:title>
     </cc:Agent>
    </dc:creator>
   </cc:Work>
  </rdf:RDF>
 </metadata>
 <defs>
  <style type="text/css">*{stroke-linejoin: round; stroke-linecap: butt}</style>
 </defs>
 <g id="figure_1">
  <g id="patch_1">
   <path d="M 0 266.815469 
L 277.04375 266.815469 
L 277.04375 0 
L 0 0 
z
" style="fill: #ffffff"/>
  </g>
  <g id="axes_1">
   <g id="patch_2">
    <path d="M 46.64375 232.759219 
L 269.84375 232.759219 
L 269.84375 10.999219 
L 46.64375 10.999219 
z
" style="fill: #ffffff"/>
   </g>
   <g id="matplotlib.axis_1">
    <g id="xtick_1">
     <g id="line2d_1">
      <defs>
       <path id="m7aa118d0d4" d="M 0 0 
L 0 -5 
" style="stroke: #808080"/>
      </defs>
      <g>
       <use xlink:href="#m7aa118d0d4" x="56.789205" y="232.759219" style="fill: #808080; stroke: #808080"/>
      </g>
     </g>
     <g id="text_1">
      <!-- 0.0 -->
      <g transform="translate(48.837642 243.857656) scale(0.1 -0.1)">
       <defs>
        <path id="DejaVuSans-30" d="M 2034 4250 
Q 1547 4250 1301 3770 
Q 1056 3291 1056 2328 
Q 1056 1369 1301 889 
Q 1547 409 2034 409 
Q 2525 409 2770 889 
Q 3016 1369 3016 2328 
Q 3016 3291 2770 3770 
Q 2525 4250 2034 4250 
z
M 2034 4750 
Q 2819 4750 3233 4129 
Q 3647 3509 3647 2328 
Q 3647 1150 3233 529 
Q 2819 -91 2034 -91 
Q 1250 -91 836 529 
Q 422 1150 422 2328 
Q 422 3509 836 4129 
Q 1250 4750 2034 4750 
z
" transform="scale(0.015625)"/>
        <path id="DejaVuSans-2e" d="M 684 794 
L 1344 794 
L 1344 0 
L 684 0 
L 684 794 
z
" transform="scale(0.015625)"/>
       </defs>
       <use xlink:href="#DejaVuSans-30"/>
       <use xlink:href="#DejaVuSans-2e" x="63.623047"/>
       <use xlink:href="#DejaVuSans-30" x="95.410156"/>
      </g>
     </g>
    </g>
    <g id="xtick_2">
     <g id="line2d_2">
      <g>
       <use xlink:href="#m7aa118d0d4" x="158.24375" y="232.759219" style="fill: #808080; stroke: #808080"/>
      </g>
     </g>
     <g id="text_2">
      <!-- 0.5 -->
      <g transform="translate(150.292187 243.857656) scale(0.1 -0.1)">
       <defs>
        <path id="DejaVuSans-35" d="M 691 4666 
L 3169 4666 
L 3169 4134 
L 1269 4134 
L 1269 2991 
Q 1406 3038 1543 3061 
Q 1681 3084 1819 3084 
Q 2600 3084 3056 2656 
Q 3513 2228 3513 1497 
Q 3513 744 3044 326 
Q 2575 -91 1722 -91 
Q 1428 -91 1123 -41 
Q 819 9 494 109 
L 494 744 
Q 775 591 1075 516 
Q 1375 441 1709 441 
Q 2250 441 2565 725 
Q 2881 1009 2881 1497 
Q 2881 1984 2565 2268 
Q 2250 2553 1709 2553 
Q 1456 2553 1204 2497 
Q 953 2441 691 2322 
L 691 4666 
z
" transform="scale(0.015625)"/>
       </defs>
       <use xlink:href="#DejaVuSans-30"/>
       <use xlink:href="#DejaVuSans-2e" x="63.623047"/>
       <use xlink:href="#DejaVuSans-35" x="95.410156"/>
      </g>
     </g>
    </g>
    <g id="xtick_3">
     <g id="line2d_3">
      <g>
       <use xlink:href="#m7aa118d0d4" x="259.698295" y="232.759219" style="fill: #808080; stroke: #808080"/>
      </g>
     </g>
     <g id="text_3">
      <!-- 1.0 -->
      <g transform="translate(251.746733 243.857656) scale(0.1 -0.1)">
       <defs>
        <path id="DejaVuSans-31" d="M 794 531 
L 1825 531 
L 1825 4091 
L 703 3866 
L 703 4441 
L 1819 4666 
L 2450 4666 
L 2450 531 
L 3481 531 
L 3481 0 
L 794 0 
L 794 531 
z
" transform="scale(0.015625)"/>
       </defs>
       <use xlink:href="#DejaVuSans-31"/>
       <use xlink:href="#DejaVuSans-2e" x="63.623047"/>
       <use xlink:href="#DejaVuSans-30" x="95.410156"/>
      </g>
     </g>
    </g>
    <g id="text_4">
     <!-- False Positive Rate -->
     <g transform="translate(111.777344 257.535781) scale(0.1 -0.1)">
      <defs>
       <path id="DejaVuSans-46" d="M 628 4666 
L 3309 4666 
L 3309 4134 
L 1259 4134 
L 1259 2759 
L 3109 2759 
L 3109 2228 
L 1259 2228 
L 1259 0 
L 628 0 
L 628 4666 
z
" transform="scale(0.015625)"/>
       <path id="DejaVuSans-61" d="M 2194 1759 
Q 1497 1759 1228 1600 
Q 959 1441 959 1056 
Q 959 750 1161 570 
Q 1363 391 1709 391 
Q 2188 391 2477 730 
Q 2766 1069 2766 1631 
L 2766 1759 
L 2194 1759 
z
M 3341 1997 
L 3341 0 
L 2766 0 
L 2766 531 
Q 2569 213 2275 61 
Q 1981 -91 1556 -91 
Q 1019 -91 701 211 
Q 384 513 384 1019 
Q 384 1609 779 1909 
Q 1175 2209 1959 2209 
L 2766 2209 
L 2766 2266 
Q 2766 2663 2505 2880 
Q 2244 3097 1772 3097 
Q 1472 3097 1187 3025 
Q 903 2953 641 2809 
L 641 3341 
Q 956 3463 1253 3523 
Q 1550 3584 1831 3584 
Q 2591 3584 2966 3190 
Q 3341 2797 3341 1997 
z
" transform="scale(0.015625)"/>
       <path id="DejaVuSans-6c" d="M 603 4863 
L 1178 4863 
L 1178 0 
L 603 0 
L 603 4863 
z
" transform="scale(0.015625)"/>
       <path id="DejaVuSans-73" d="M 2834 3397 
L 2834 2853 
Q 2591 2978 2328 3040 
Q 2066 3103 1784 3103 
Q 1356 3103 1142 2972 
Q 928 2841 928 2578 
Q 928 2378 1081 2264 
Q 1234 2150 1697 2047 
L 1894 2003 
Q 2506 1872 2764 1633 
Q 3022 1394 3022 966 
Q 3022 478 2636 193 
Q 2250 -91 1575 -91 
Q 1294 -91 989 -36 
Q 684 19 347 128 
L 347 722 
Q 666 556 975 473 
Q 1284 391 1588 391 
Q 1994 391 2212 530 
Q 2431 669 2431 922 
Q 2431 1156 2273 1281 
Q 2116 1406 1581 1522 
L 1381 1569 
Q 847 1681 609 1914 
Q 372 2147 372 2553 
Q 372 3047 722 3315 
Q 1072 3584 1716 3584 
Q 2034 3584 2315 3537 
Q 2597 3491 2834 3397 
z
" transform="scale(0.015625)"/>
       <path id="DejaVuSans-65" d="M 3597 1894 
L 3597 1613 
L 953 1613 
Q 991 1019 1311 708 
Q 1631 397 2203 397 
Q 2534 397 2845 478 
Q 3156 559 3463 722 
L 3463 178 
Q 3153 47 2828 -22 
Q 2503 -91 2169 -91 
Q 1331 -91 842 396 
Q 353 884 353 1716 
Q 353 2575 817 3079 
Q 1281 3584 2069 3584 
Q 2775 3584 3186 3129 
Q 3597 2675 3597 1894 
z
M 3022 2063 
Q 3016 2534 2758 2815 
Q 2500 3097 2075 3097 
Q 1594 3097 1305 2825 
Q 1016 2553 972 2059 
L 3022 2063 
z
" transform="scale(0.015625)"/>
       <path id="DejaVuSans-20" transform="scale(0.015625)"/>
       <path id="DejaVuSans-50" d="M 1259 4147 
L 1259 2394 
L 2053 2394 
Q 2494 2394 2734 2622 
Q 2975 2850 2975 3272 
Q 2975 3691 2734 3919 
Q 2494 4147 2053 4147 
L 1259 4147 
z
M 628 4666 
L 2053 4666 
Q 2838 4666 3239 4311 
Q 3641 3956 3641 3272 
Q 3641 2581 3239 2228 
Q 2838 1875 2053 1875 
L 1259 1875 
L 1259 0 
L 628 0 
L 628 4666 
z
" transform="scale(0.015625)"/>
       <path id="DejaVuSans-6f" d="M 1959 3097 
Q 1497 3097 1228 2736 
Q 959 2375 959 1747 
Q 959 1119 1226 758 
Q 1494 397 1959 397 
Q 2419 397 2687 759 
Q 2956 1122 2956 1747 
Q 2956 2369 2687 2733 
Q 2419 3097 1959 3097 
z
M 1959 3584 
Q 2709 3584 3137 3096 
Q 3566 2609 3566 1747 
Q 3566 888 3137 398 
Q 2709 -91 1959 -91 
Q 1206 -91 779 398 
Q 353 888 353 1747 
Q 353 2609 779 3096 
Q 1206 3584 1959 3584 
z
" transform="scale(0.015625)"/>
       <path id="DejaVuSans-69" d="M 603 3500 
L 1178 3500 
L 1178 0 
L 603 0 
L 603 3500 
z
M 603 4863 
L 1178 4863 
L 1178 4134 
L 603 4134 
L 603 4863 
z
" transform="scale(0.015625)"/>
       <path id="DejaVuSans-74" d="M 1172 4494 
L 1172 3500 
L 2356 3500 
L 2356 3053 
L 1172 3053 
L 1172 1153 
Q 1172 725 1289 603 
Q 1406 481 1766 481 
L 2356 481 
L 2356 0 
L 1766 0 
Q 1100 0 847 248 
Q 594 497 594 1153 
L 594 3053 
L 172 3053 
L 172 3500 
L 594 3500 
L 594 4494 
L 1172 4494 
z
" transform="scale(0.015625)"/>
       <path id="DejaVuSans-76" d="M 191 3500 
L 800 3500 
L 1894 563 
L 2988 3500 
L 3597 3500 
L 2284 0 
L 1503 0 
L 191 3500 
z
" transform="scale(0.015625)"/>
       <path id="DejaVuSans-52" d="M 2841 2188 
Q 3044 2119 3236 1894 
Q 3428 1669 3622 1275 
L 4263 0 
L 3584 0 
L 2988 1197 
Q 2756 1666 2539 1819 
Q 2322 1972 1947 1972 
L 1259 1972 
L 1259 0 
L 628 0 
L 628 4666 
L 2053 4666 
Q 2853 4666 3247 4331 
Q 3641 3997 3641 3322 
Q 3641 2881 3436 2590 
Q 3231 2300 2841 2188 
z
M 1259 4147 
L 1259 2491 
L 2053 2491 
Q 2509 2491 2742 2702 
Q 2975 2913 2975 3322 
Q 2975 3731 2742 3939 
Q 2509 4147 2053 4147 
L 1259 4147 
z
" transform="scale(0.015625)"/>
      </defs>
      <use xlink:href="#DejaVuSans-46"/>
      <use xlink:href="#DejaVuSans-61" x="48.394531"/>
      <use xlink:href="#DejaVuSans-6c" x="109.673828"/>
      <use xlink:href="#DejaVuSans-73" x="137.457031"/>
      <use xlink:href="#DejaVuSans-65" x="189.556641"/>
      <use xlink:href="#DejaVuSans-20" x="251.080078"/>
      <use xlink:href="#DejaVuSans-50" x="282.867188"/>
      <use xlink:href="#DejaVuSans-6f" x="339.544922"/>
      <use xlink:href="#DejaVuSans-73" x="400.726562"/>
      <use xlink:href="#DejaVuSans-69" x="452.826172"/>
      <use xlink:href="#DejaVuSans-74" x="480.609375"/>
      <use xlink:href="#DejaVuSans-69" x="519.818359"/>
      <use xlink:href="#DejaVuSans-76" x="547.601562"/>
      <use xlink:href="#DejaVuSans-65" x="606.78125"/>
      <use xlink:href="#DejaVuSans-20" x="668.304688"/>
      <use xlink:href="#DejaVuSans-52" x="700.091797"/>
      <use xlink:href="#DejaVuSans-61" x="767.324219"/>
      <use xlink:href="#DejaVuSans-74" x="828.603516"/>
      <use xlink:href="#DejaVuSans-65" x="867.8125"/>
     </g>
    </g>
   </g>
   <g id="matplotlib.axis_2">
    <g id="ytick_1">
     <g id="line2d_4">
      <defs>
       <path id="m025ac89781" d="M 0 0 
L 5 0 
" style="stroke: #808080"/>
      </defs>
      <g>
       <use xlink:href="#m025ac89781" x="46.64375" y="188.407219" style="fill: #808080; stroke: #808080"/>
      </g>
     </g>
     <g id="text_5">
      <!-- 0.25 -->
      <g transform="translate(20.878125 192.206438) scale(0.1 -0.1)">
       <defs>
        <path id="DejaVuSans-32" d="M 1228 531 
L 3431 531 
L 3431 0 
L 469 0 
L 469 531 
Q 828 903 1448 1529 
Q 2069 2156 2228 2338 
Q 2531 2678 2651 2914 
Q 2772 3150 2772 3378 
Q 2772 3750 2511 3984 
Q 2250 4219 1831 4219 
Q 1534 4219 1204 4116 
Q 875 4013 500 3803 
L 500 4441 
Q 881 4594 1212 4672 
Q 1544 4750 1819 4750 
Q 2544 4750 2975 4387 
Q 3406 4025 3406 3419 
Q 3406 3131 3298 2873 
Q 3191 2616 2906 2266 
Q 2828 2175 2409 1742 
Q 1991 1309 1228 531 
z
" transform="scale(0.015625)"/>
       </defs>
       <use xlink:href="#DejaVuSans-30"/>
       <use xlink:href="#DejaVuSans-2e" x="63.623047"/>
       <use xlink:href="#DejaVuSans-32" x="95.410156"/>
       <use xlink:href="#DejaVuSans-35" x="159.033203"/>
      </g>
     </g>
    </g>
    <g id="ytick_2">
     <g id="line2d_5">
      <g>
       <use xlink:href="#m025ac89781" x="46.64375" y="144.055219" style="fill: #808080; stroke: #808080"/>
      </g>
     </g>
     <g id="text_6">
      <!-- 0.50 -->
      <g transform="translate(20.878125 147.854438) scale(0.1 -0.1)">
       <use xlink:href="#DejaVuSans-30"/>
       <use xlink:href="#DejaVuSans-2e" x="63.623047"/>
       <use xlink:href="#DejaVuSans-35" x="95.410156"/>
       <use xlink:href="#DejaVuSans-30" x="159.033203"/>
      </g>
     </g>
    </g>
    <g id="ytick_3">
     <g id="line2d_6">
      <g>
       <use xlink:href="#m025ac89781" x="46.64375" y="99.703219" style="fill: #808080; stroke: #808080"/>
      </g>
     </g>
     <g id="text_7">
      <!-- 0.75 -->
      <g transform="translate(20.878125 103.502438) scale(0.1 -0.1)">
       <defs>
        <path id="DejaVuSans-37" d="M 525 4666 
L 3525 4666 
L 3525 4397 
L 1831 0 
L 1172 0 
L 2766 4134 
L 525 4134 
L 525 4666 
z
" transform="scale(0.015625)"/>
       </defs>
       <use xlink:href="#DejaVuSans-30"/>
       <use xlink:href="#DejaVuSans-2e" x="63.623047"/>
       <use xlink:href="#DejaVuSans-37" x="95.410156"/>
       <use xlink:href="#DejaVuSans-35" x="159.033203"/>
      </g>
     </g>
    </g>
    <g id="ytick_4">
     <g id="line2d_7">
      <g>
       <use xlink:href="#m025ac89781" x="46.64375" y="55.351219" style="fill: #808080; stroke: #808080"/>
      </g>
     </g>
     <g id="text_8">
      <!-- 1.00 -->
      <g transform="translate(20.878125 59.150438) scale(0.1 -0.1)">
       <use xlink:href="#DejaVuSans-31"/>
       <use xlink:href="#DejaVuSans-2e" x="63.623047"/>
       <use xlink:href="#DejaVuSans-30" x="95.410156"/>
       <use xlink:href="#DejaVuSans-30" x="159.033203"/>
      </g>
     </g>
    </g>
    <g id="ytick_5">
     <g id="line2d_8">
      <g>
       <use xlink:href="#m025ac89781" x="46.64375" y="10.999219" style="fill: #808080; stroke: #808080"/>
      </g>
     </g>
     <g id="text_9">
      <!-- 1.25 -->
      <g transform="translate(20.878125 14.798438) scale(0.1 -0.1)">
       <use xlink:href="#DejaVuSans-31"/>
       <use xlink:href="#DejaVuSans-2e" x="63.623047"/>
       <use xlink:href="#DejaVuSans-32" x="95.410156"/>
       <use xlink:href="#DejaVuSans-35" x="159.033203"/>
      </g>
     </g>
    </g>
    <g id="text_10">
     <!-- True Positive Rate -->
     <g transform="translate(14.798438 166.408906) rotate(-90) scale(0.1 -0.1)">
      <defs>
       <path id="DejaVuSans-54" d="M -19 4666 
L 3928 4666 
L 3928 4134 
L 2272 4134 
L 2272 0 
L 1638 0 
L 1638 4134 
L -19 4134 
L -19 4666 
z
" transform="scale(0.015625)"/>
       <path id="DejaVuSans-72" d="M 2631 2963 
Q 2534 3019 2420 3045 
Q 2306 3072 2169 3072 
Q 1681 3072 1420 2755 
Q 1159 2438 1159 1844 
L 1159 0 
L 581 0 
L 581 3500 
L 1159 3500 
L 1159 2956 
Q 1341 3275 1631 3429 
Q 1922 3584 2338 3584 
Q 2397 3584 2469 3576 
Q 2541 3569 2628 3553 
L 2631 2963 
z
" transform="scale(0.015625)"/>
       <path id="DejaVuSans-75" d="M 544 1381 
L 544 3500 
L 1119 3500 
L 1119 1403 
Q 1119 906 1312 657 
Q 1506 409 1894 409 
Q 2359 409 2629 706 
Q 2900 1003 2900 1516 
L 2900 3500 
L 3475 3500 
L 3475 0 
L 2900 0 
L 2900 538 
Q 2691 219 2414 64 
Q 2138 -91 1772 -91 
Q 1169 -91 856 284 
Q 544 659 544 1381 
z
M 1991 3584 
L 1991 3584 
z
" transform="scale(0.015625)"/>
      </defs>
      <use xlink:href="#DejaVuSans-54"/>
      <use xlink:href="#DejaVuSans-72" x="46.333984"/>
      <use xlink:href="#DejaVuSans-75" x="87.447266"/>
      <use xlink:href="#DejaVuSans-65" x="150.826172"/>
      <use xlink:href="#DejaVuSans-20" x="212.349609"/>
      <use xlink:href="#DejaVuSans-50" x="244.136719"/>
      <use xlink:href="#DejaVuSans-6f" x="300.814453"/>
      <use xlink:href="#DejaVuSans-73" x="361.996094"/>
      <use xlink:href="#DejaVuSans-69" x="414.095703"/>
      <use xlink:href="#DejaVuSans-74" x="441.878906"/>
      <use xlink:href="#DejaVuSans-69" x="481.087891"/>
      <use xlink:href="#DejaVuSans-76" x="508.871094"/>
      <use xlink:href="#DejaVuSans-65" x="568.050781"/>
      <use xlink:href="#DejaVuSans-20" x="629.574219"/>
      <use xlink:href="#DejaVuSans-52" x="661.361328"/>
      <use xlink:href="#DejaVuSans-61" x="728.59375"/>
      <use xlink:href="#DejaVuSans-74" x="789.873047"/>
      <use xlink:href="#DejaVuSans-65" x="829.082031"/>
     </g>
    </g>
   </g>
   <g id="line2d_9">
    <path d="M 56.789205 232.759219 
L 56.896849 147.250389 
L 57.004493 147.250389 
L 57.112137 120.654404 
L 57.219781 120.654404 
L 57.327425 112.01223 
L 57.435069 112.01223 
L 57.542713 105.743611 
L 57.650357 105.743611 
L 57.758001 104.830706 
L 57.865645 104.830706 
L 57.973289 103.004894 
L 58.080934 103.004894 
L 58.188578 101.726826 
L 58.296222 101.726826 
L 58.403866 98.440366 
L 58.51151 98.440366 
L 58.619154 97.40574 
L 58.726798 97.40574 
L 58.834442 94.241 
L 58.942086 94.241 
L 59.04973 92.902072 
L 59.265018 92.841211 
L 59.372662 92.232607 
L 59.480307 92.232607 
L 59.587951 90.163355 
L 59.695595 90.163355 
L 59.803239 88.215823 
L 59.910883 88.215823 
L 60.018527 87.911521 
L 60.126171 87.911521 
L 60.126171 87.7898 
L 60.341459 87.7898 
L 60.449103 86.755173 
L 60.556747 86.755173 
L 60.556747 86.450872 
L 60.87968 86.390011 
L 60.987324 85.781407 
L 61.525544 85.720547 
L 61.525544 84.685921 
L 61.740832 84.685921 
L 61.740832 84.259898 
L 61.95612 84.259898 
L 62.063764 82.738389 
L 62.171409 82.738389 
L 62.171409 82.555807 
L 62.494341 82.555807 
L 62.601985 81.947204 
L 62.817273 81.947204 
L 62.924917 80.425694 
L 63.355493 80.425694 
L 63.463138 79.573649 
L 63.678426 79.573649 
L 63.78607 79.330207 
L 63.893714 79.330207 
L 63.893714 79.208487 
L 64.109002 79.208487 
L 64.216646 79.025906 
L 64.539578 78.965045 
L 64.647222 78.660743 
L 64.862511 78.599883 
L 64.970155 78.234721 
L 65.077799 78.234721 
L 65.185443 77.991279 
L 65.293087 77.991279 
L 65.293087 77.808698 
L 65.508375 77.808698 
L 65.616019 77.504396 
L 65.938951 77.443536 
L 66.046595 77.078373 
L 66.584816 77.017513 
L 66.584816 76.956653 
L 66.800104 76.956653 
L 66.800104 76.834932 
L 67.015392 76.834932 
L 67.123036 76.104607 
L 67.23068 76.104607 
L 67.338324 75.556864 
L 67.553613 75.556864 
L 67.553613 75.191702 
L 67.876545 75.191702 
L 67.876545 74.94826 
L 68.307121 74.8874 
L 68.307121 74.583098 
L 68.952986 74.522238 
L 68.952986 74.096215 
L 69.168274 74.096215 
L 69.275918 73.913634 
L 69.706494 73.913634 
L 69.814138 73.609332 
L 69.921782 73.609332 
L 70.029426 73.426751 
L 70.352359 73.426751 
L 70.352359 73.30503 
L 70.782935 73.24417 
L 70.890579 73.122449 
L 71.321155 73.061589 
L 71.321155 72.939868 
L 71.536444 72.939868 
L 71.644088 72.696426 
L 71.859376 72.696426 
L 71.96702 72.513845 
L 72.397596 72.452985 
L 72.50524 72.270404 
L 72.720528 72.209543 
L 72.720528 72.148683 
L 73.151105 72.148683 
L 73.258749 71.966102 
L 73.581681 71.905241 
L 73.581681 71.72266 
L 74.227546 71.6618 
L 74.227546 71.540079 
L 74.658122 71.479219 
L 74.658122 71.418358 
L 74.87341 71.418358 
L 74.87341 71.235777 
L 75.41163 71.174917 
L 75.41163 71.053196 
L 76.165139 70.992336 
L 76.165139 70.931475 
L 76.811003 70.870615 
L 76.918648 70.688034 
L 77.349224 70.627173 
L 77.349224 70.505453 
L 77.564512 70.505453 
L 77.672156 70.262011 
L 77.7798 70.262011 
L 77.887444 70.01857 
L 78.102732 70.01857 
L 78.210376 69.653407 
L 78.640953 69.592547 
L 78.748597 69.470826 
L 79.60975 69.409966 
L 79.60975 69.288245 
L 80.14797 69.227385 
L 80.14797 69.166524 
L 81.009123 69.105664 
L 81.009123 69.044804 
L 81.332055 69.044804 
L 81.332055 68.923083 
L 82.085563 68.862223 
L 82.193207 68.679641 
L 82.946716 68.618781 
L 83.05436 68.49706 
L 83.484936 68.4362 
L 83.484936 68.37534 
L 84.130801 68.314479 
L 84.130801 68.071038 
L 84.776665 68.010177 
L 84.776665 67.888456 
L 85.099598 67.827596 
L 85.099598 67.766736 
L 85.637818 67.705875 
L 85.637818 67.645015 
L 86.176038 67.645015 
L 86.176038 67.523294 
L 86.821903 67.462434 
L 86.821903 67.401573 
L 87.360123 67.340713 
L 87.360123 67.218992 
L 88.544208 67.158132 
L 88.544208 67.097272 
L 89.297717 67.036411 
L 89.297717 66.91469 
L 90.374158 66.91469 
L 90.374158 66.671249 
L 90.589446 66.671249 
L 90.589446 66.549528 
L 91.127666 66.549528 
L 91.127666 66.427807 
L 91.342954 66.427807 
L 91.342954 66.245226 
L 91.988819 66.184366 
L 92.096463 66.001785 
L 92.849971 65.940924 
L 92.849971 65.697483 
L 93.172904 65.636623 
L 93.172904 65.575762 
L 94.034056 65.514902 
L 94.1417 65.393181 
L 95.110497 65.332321 
L 95.110497 65.27146 
L 95.433429 65.2106 
L 95.433429 65.088879 
L 95.864006 65.088879 
L 95.864006 64.906298 
L 96.402226 64.845438 
L 96.402226 64.723717 
L 97.04809 64.662856 
L 97.04809 64.541136 
L 97.263379 64.541136 
L 97.263379 64.358555 
L 98.232175 64.297694 
L 98.339819 64.175973 
L 98.770396 64.175973 
L 98.770396 64.054253 
L 99.846837 64.054253 
L 99.846837 63.932532 
L 101.461498 63.871672 
L 101.569142 63.749951 
L 101.676786 63.749951 
L 101.676786 63.56737 
L 101.999718 63.506509 
L 101.999718 63.445649 
L 103.722023 63.384789 
L 103.722023 63.263068 
L 105.444329 63.202207 
L 105.444329 63.080487 
L 107.59721 63.019626 
L 107.59721 62.958766 
L 108.458363 62.897906 
L 108.566007 62.715324 
L 109.211872 62.654464 
L 109.211872 62.593604 
L 111.795329 62.532743 
L 111.795329 62.471883 
L 112.225906 62.411023 
L 112.225906 62.350162 
L 114.809364 62.289302 
L 114.809364 62.228441 
L 115.77816 62.167581 
L 115.77816 62.106721 
L 117.931042 62.04586 
L 117.931042 61.985 
L 118.792195 61.92414 
L 118.792195 61.863279 
L 119.222771 61.802419 
L 119.330415 61.680698 
L 119.868635 61.619838 
L 119.868635 61.558977 
L 123.205602 61.498117 
L 123.205602 61.437256 
L 124.389687 61.376396 
L 124.389687 61.315536 
L 126.973145 61.254675 
L 126.973145 61.193815 
L 127.511365 61.132955 
L 127.511365 61.072094 
L 128.587806 61.011234 
L 128.587806 60.950373 
L 129.771891 60.889513 
L 129.771891 60.828653 
L 131.924772 60.767792 
L 131.924772 60.706932 
L 133.108857 60.646072 
L 133.108857 60.524351 
L 134.292942 60.46349 
L 134.292942 60.40263 
L 136.553468 60.34177 
L 136.553468 60.280909 
L 137.199332 60.220049 
L 137.199332 60.159189 
L 138.491061 60.098328 
L 138.491061 59.976607 
L 139.029282 59.915747 
L 139.029282 59.854887 
L 139.78279 59.794026 
L 139.78279 59.733166 
L 141.289807 59.672306 
L 141.289807 59.611445 
L 141.720384 59.550585 
L 141.720384 59.489724 
L 142.043316 59.489724 
L 142.043316 59.368004 
L 144.303842 59.307143 
L 144.303842 59.246283 
L 146.133791 59.185423 
L 146.133791 59.124562 
L 147.317876 59.063702 
L 147.317876 59.002841 
L 149.79369 58.941981 
L 149.79369 58.881121 
L 151.731283 58.82026 
L 151.731283 58.7594 
L 154.207097 58.69854 
L 154.207097 58.637679 
L 160.988674 58.576819 
L 160.988674 58.515958 
L 161.849827 58.455098 
L 161.849827 58.394238 
L 164.110352 58.333377 
L 164.110352 58.272517 
L 169.169624 58.211656 
L 169.169624 58.150796 
L 176.70471 58.089936 
L 176.70471 58.029075 
L 177.135286 58.029075 
L 177.135286 57.907355 
L 180.14932 57.846494 
L 180.14932 57.724773 
L 185.42388 57.663913 
L 185.531524 57.542192 
L 186.607965 57.481332 
L 186.607965 57.420472 
L 197.480017 57.359611 
L 197.480017 57.298751 
L 203.831018 57.23789 
L 203.831018 57.17703 
L 206.091544 57.11617 
L 206.091544 57.055309 
L 208.567357 56.994449 
L 208.567357 56.933589 
L 210.720239 56.872728 
L 210.720239 56.811868 
L 213.734273 56.751007 
L 213.734273 56.690147 
L 215.456579 56.629287 
L 215.456579 56.568426 
L 219.762342 56.507566 
L 219.762342 56.385845 
L 225.575122 56.324985 
L 225.575122 56.264124 
L 229.019733 56.203264 
L 229.019733 56.142404 
L 232.571987 56.081543 
L 232.571987 56.020683 
L 236.554818 55.959823 
L 236.554818 55.898962 
L 246.781006 55.838102 
L 246.781006 55.777241 
L 249.041532 55.716381 
L 249.041532 55.655521 
L 251.194413 55.59466 
L 251.194413 55.5338 
L 258.837143 55.47294 
L 258.837143 55.412079 
L 259.698295 55.351219 
L 259.698295 55.351219 
" clip-path="url(#pce7833b341)" style="fill: none; stroke: #2ba77b; stroke-width: 3; stroke-linecap: square"/>
   </g>
   <g id="line2d_10">
    <path d="M 56.789205 232.759219 
L 56.895162 177.169329 
L 57.00112 176.923356 
L 57.107078 127.421297 
L 57.213036 127.421297 
L 57.318993 122.378851 
L 57.424951 122.378851 
L 57.530909 113.585318 
L 57.636867 113.585318 
L 57.742824 107.313007 
L 57.848782 107.313007 
L 57.95474 102.639521 
L 58.060698 102.639521 
L 58.166655 99.1959 
L 58.272613 99.1959 
L 58.378571 98.519474 
L 58.484529 98.519474 
L 58.590486 97.535582 
L 58.696444 97.535582 
L 58.802402 95.690785 
L 58.90836 95.690785 
L 59.014317 93.415535 
L 59.120275 93.415535 
L 59.226233 92.677616 
L 59.332191 92.677616 
L 59.332191 92.493136 
L 59.650064 92.493136 
L 59.756022 89.91042 
L 59.861979 89.91042 
L 59.967937 89.418474 
L 60.179853 89.418474 
L 60.28581 88.988022 
L 60.391768 88.988022 
L 60.497726 87.450691 
L 60.603684 87.450691 
L 60.709641 86.528292 
L 60.815599 86.528292 
L 60.921557 85.974853 
L 61.027515 85.974853 
L 61.133472 85.790373 
L 61.451346 85.72888 
L 61.557303 85.113947 
L 61.663261 85.113947 
L 61.663261 84.376028 
L 61.875177 84.376028 
L 61.875177 84.068562 
L 62.087092 84.068562 
L 62.19305 83.392137 
L 62.404965 83.330643 
L 62.510923 83.146164 
L 62.616881 83.146164 
L 62.722839 82.715711 
L 62.828796 82.715711 
L 62.828796 82.531231 
L 63.252627 82.531231 
L 63.358585 82.285258 
L 63.464543 82.285258 
L 63.464543 81.670326 
L 63.994332 81.670326 
L 64.100289 80.870914 
L 64.52412 80.80942 
L 64.630078 80.194488 
L 64.841994 80.194488 
L 64.947951 79.948515 
L 65.053909 79.948515 
L 65.159867 79.210596 
L 65.265825 79.210596 
L 65.371782 79.026116 
L 65.47774 79.026116 
L 65.47774 78.90313 
L 66.113487 78.841637 
L 66.113487 78.472677 
L 66.537318 78.411184 
L 66.643275 78.103718 
L 66.961149 78.042225 
L 67.067106 77.673265 
L 67.596895 77.611772 
L 67.596895 77.181319 
L 67.914768 77.181319 
L 68.020726 76.62788 
L 68.126684 76.62788 
L 68.126684 76.4434 
L 68.76243 76.381907 
L 68.868388 76.258921 
L 69.080304 76.197427 
L 69.186261 76.012948 
L 69.292219 76.012948 
L 69.398177 75.521002 
L 69.610092 75.521002 
L 69.71605 75.090549 
L 69.822008 75.090549 
L 69.927966 74.844576 
L 70.139881 74.783083 
L 70.245839 74.414123 
L 70.351797 74.414123 
L 70.351797 74.291137 
L 70.775628 74.229644 
L 70.881585 73.922178 
L 71.093501 73.922178 
L 71.199459 73.676205 
L 71.305416 73.676205 
L 71.305416 73.553218 
L 71.62329 73.491725 
L 71.62329 72.753806 
L 72.153078 72.692313 
L 72.259036 72.200367 
L 72.576909 72.200367 
L 72.576909 71.892901 
L 74.272233 71.831407 
L 74.272233 71.769914 
L 75.013938 71.708421 
L 75.013938 71.646928 
L 75.331811 71.646928 
L 75.437769 71.339461 
L 75.755642 71.339461 
L 75.755642 71.216475 
L 76.179473 71.154982 
L 76.285431 71.031995 
L 76.603304 70.970502 
L 76.603304 70.909009 
L 77.133093 70.909009 
L 77.23905 70.663036 
L 77.450966 70.601542 
L 77.450966 70.540049 
L 77.768839 70.540049 
L 77.874797 70.232583 
L 77.980755 70.232583 
L 77.980755 70.048103 
L 78.510543 69.98661 
L 78.616501 69.80213 
L 78.934374 69.80213 
L 79.040332 69.617651 
L 79.570121 69.556157 
L 79.570121 69.371678 
L 79.887994 69.371678 
L 79.887994 69.187198 
L 80.735656 69.125705 
L 80.735656 69.002718 
L 81.47736 69.002718 
L 81.583318 68.695252 
L 82.43098 68.633759 
L 82.536938 68.449279 
L 82.642896 68.449279 
L 82.642896 68.326293 
L 82.960769 68.326293 
L 83.066727 68.08032 
L 83.278642 68.018826 
L 83.278642 67.957333 
L 84.126304 67.89584 
L 84.232262 67.71136 
L 84.868008 67.71136 
L 84.973966 67.52688 
L 86.775248 67.465387 
L 86.775248 67.403894 
L 86.987163 67.403894 
L 86.987163 67.280907 
L 87.516952 67.280907 
L 87.516952 66.850455 
L 88.046741 66.850455 
L 88.046741 66.727468 
L 88.258656 66.727468 
L 88.258656 66.604482 
L 89.318234 66.542989 
L 89.424191 66.174029 
L 89.95398 66.112536 
L 89.95398 66.051043 
L 90.271853 65.989549 
L 90.271853 65.866563 
L 90.589727 65.80507 
L 90.589727 65.682083 
L 91.119515 65.62059 
L 91.225473 65.43611 
L 91.755262 65.43611 
L 91.86122 65.190137 
L 92.285051 65.128644 
L 92.391008 64.821178 
L 92.602924 64.821178 
L 92.602924 64.698191 
L 94.616121 64.636698 
L 94.616121 64.575205 
L 95.251868 64.513712 
L 95.251868 64.390725 
L 95.887614 64.329232 
L 95.993572 64.144752 
L 96.205487 64.144752 
L 96.205487 64.021766 
L 96.947192 63.960272 
L 96.947192 63.898779 
L 97.265065 63.898779 
L 97.265065 63.7143 
L 97.47698 63.7143 
L 97.47698 63.52982 
L 98.642516 63.468327 
L 98.642516 63.406833 
L 99.172304 63.34534 
L 99.172304 63.283847 
L 100.443797 63.222354 
L 100.549755 62.976381 
L 101.821248 62.914887 
L 101.821248 62.853394 
L 102.456995 62.791901 
L 102.456995 62.730408 
L 103.410614 62.730408 
L 103.410614 62.607421 
L 104.470192 62.545928 
L 104.470192 62.484435 
L 105.741685 62.422941 
L 105.741685 62.361448 
L 106.271474 62.299955 
L 106.271474 62.238462 
L 107.966798 62.238462 
L 108.072755 61.992489 
L 108.284671 61.992489 
L 108.284671 61.869502 
L 109.238291 61.808009 
L 109.344248 61.685023 
L 109.979995 61.623529 
L 109.979995 61.562036 
L 110.933615 61.500543 
L 110.933615 61.43905 
L 111.251488 61.43905 
L 111.251488 61.316063 
L 112.522981 61.25457 
L 112.522981 61.193077 
L 114.218305 61.131583 
L 114.324263 61.008597 
L 115.489798 60.947104 
L 115.489798 60.88561 
L 117.29108 60.824117 
L 117.29108 60.762624 
L 119.198319 60.701131 
L 119.198319 60.639637 
L 120.999601 60.578144 
L 120.999601 60.516651 
L 123.118756 60.455158 
L 123.118756 60.393665 
L 123.648545 60.393665 
L 123.648545 60.270678 
L 125.343869 60.209185 
L 125.343869 60.147692 
L 129.158348 60.086198 
L 129.158348 60.024705 
L 130.747714 59.963212 
L 130.747714 59.901719 
L 131.701334 59.901719 
L 131.701334 59.778732 
L 133.2907 59.717239 
L 133.2907 59.594252 
L 133.926446 59.594252 
L 133.926446 59.471266 
L 136.469432 59.409773 
L 136.469432 59.348279 
L 139.86008 59.286786 
L 139.86008 59.225293 
L 143.992433 59.1638 
L 143.992433 59.102306 
L 149.184362 59.040813 
L 149.184362 58.97932 
L 150.24394 58.917827 
L 150.24394 58.856333 
L 156.707363 58.79484 
L 156.707363 58.733347 
L 157.131194 58.733347 
L 157.237151 58.548867 
L 158.826518 58.487374 
L 158.826518 58.364388 
L 162.111208 58.302894 
L 162.111208 58.241401 
L 164.654194 58.179908 
L 164.654194 58.118415 
L 165.078025 58.056921 
L 165.078025 57.995428 
L 166.455476 57.933935 
L 166.455476 57.872442 
L 168.998462 57.810948 
L 168.998462 57.749455 
L 170.269955 57.687962 
L 170.269955 57.626469 
L 173.76656 57.564975 
L 173.76656 57.503482 
L 175.461884 57.441989 
L 175.567842 57.319002 
L 177.051251 57.257509 
L 177.051251 57.196016 
L 184.892124 57.134523 
L 184.892124 57.073029 
L 187.964899 57.073029 
L 187.964899 56.950043 
L 194.110448 56.88855 
L 194.110448 56.827057 
L 201.209618 56.765563 
L 201.209618 56.70407 
L 207.355167 56.70407 
L 207.355167 56.581084 
L 212.547097 56.51959 
L 212.547097 56.458097 
L 220.705844 56.458097 
L 220.705844 56.335111 
L 226.321604 56.273617 
L 226.321604 56.212124 
L 228.970548 56.150631 
L 228.970548 56.089138 
L 233.314816 56.027644 
L 233.314816 55.966151 
L 239.990154 55.904658 
L 239.990154 55.843165 
L 243.698675 55.781671 
L 243.698675 55.720178 
L 254.188492 55.658685 
L 254.188492 55.597192 
L 258.108929 55.535698 
L 258.214887 55.412712 
L 259.698295 55.351219 
L 259.698295 55.351219 
" clip-path="url(#pce7833b341)" style="fill: none; stroke-dasharray: 11.1,4.8; stroke-dashoffset: 0; stroke: #e9a001; stroke-width: 3"/>
   </g>
   <g id="line2d_11">
    <path d="M 56.789205 232.759219 
L 259.698295 55.351219 
" clip-path="url(#pce7833b341)" style="fill: none; stroke-dasharray: 11.1,4.8; stroke-dashoffset: 0; stroke: #2274b2; stroke-width: 3"/>
   </g>
   <g id="patch_3">
    <path d="M 46.64375 232.759219 
L 46.64375 10.999219 
" style="fill: none; stroke: #808080; stroke-width: 0.8; stroke-linejoin: miter; stroke-linecap: square"/>
   </g>
   <g id="patch_4">
    <path d="M 46.64375 232.759219 
L 269.84375 232.759219 
" style="fill: none; stroke: #808080; stroke-width: 0.8; stroke-linejoin: miter; stroke-linecap: square"/>
   </g>
   <g id="legend_1">
    <g id="patch_5">
     <path d="M 129.649459 226.259219 
L 260.74375 226.259219 
Q 263.34375 226.259219 263.34375 223.659219 
L 263.34375 188.722595 
Q 263.34375 186.122595 260.74375 186.122595 
L 129.649459 186.122595 
Q 127.049459 186.122595 127.049459 188.722595 
L 127.049459 223.659219 
Q 127.049459 226.259219 129.649459 226.259219 
z
" style="fill: #ffffff; opacity: 0.8; stroke: #cccccc; stroke-linejoin: miter"/>
    </g>
    <g id="line2d_12">
     <path d="M 132.249459 195.872595 
L 145.249459 195.872595 
L 158.249459 195.872595 
" style="fill: none; stroke: #2ba77b; stroke-width: 3; stroke-linecap: square"/>
    </g>
    <g id="text_11">
     <!-- Test area = 0.96 -->
     <g transform="translate(168.649459 200.422595) scale(0.13 -0.13)">
      <defs>
       <path id="CMSS17-54" d="M 2317 3968 
L 2848 3968 
C 2925 3968 3002 3968 3078 3968 
L 3878 3968 
L 3878 4376 
L 218 4376 
L 218 3968 
L 1018 3968 
C 1094 3968 1171 3968 1248 3968 
L 1779 3968 
L 1779 -32 
L 2317 -32 
L 2317 3968 
z
" transform="scale(0.015625)"/>
       <path id="CMSS17-65" d="M 2502 1377 
C 2502 1590 2490 2003 2285 2345 
C 2061 2713 1696 2816 1421 2816 
C 755 2816 192 2188 192 1375 
C 192 582 774 -64 1510 -64 
C 1798 -64 2150 19 2470 248 
C 2470 274 2458 414 2451 420 
C 2451 433 2432 630 2432 656 
C 2125 407 1773 325 1517 325 
C 1107 325 666 667 646 1377 
L 2502 1377 
z
M 698 1728 
C 781 2084 1062 2421 1421 2421 
C 1517 2421 1965 2421 2080 1728 
L 698 1728 
z
" transform="scale(0.015625)"/>
       <path id="CMSS17-73" d="M 2061 2627 
C 1683 2807 1389 2807 1197 2807 
C 742 2807 198 2648 198 2003 
C 198 1359 902 1218 1094 1179 
C 1389 1122 1715 1058 1715 740 
C 1715 337 1254 337 1171 337 
C 915 337 563 407 243 638 
L 166 210 
C 531 0 883 -64 1178 -64 
C 1965 -64 2163 416 2163 781 
C 2163 1094 1984 1305 1862 1401 
C 1651 1568 1574 1587 1050 1696 
C 960 1709 646 1779 646 2066 
C 646 2432 1050 2432 1139 2432 
C 1555 2432 1811 2303 1984 2208 
L 2061 2627 
z
" transform="scale(0.015625)"/>
       <path id="CMSS17-74" d="M 1069 2368 
L 1901 2368 
L 1901 2737 
L 1069 2737 
L 1069 3520 
L 614 3520 
L 614 2737 
L 109 2737 
L 109 2368 
L 602 2368 
L 602 749 
C 602 384 685 -64 1107 -64 
C 1427 -64 1722 25 2003 172 
L 1901 548 
C 1747 414 1562 337 1363 337 
C 1082 337 1069 696 1069 856 
L 1069 2368 
z
" transform="scale(0.015625)"/>
       <path id="CMSS17-61" d="M 2406 1791 
C 2406 2392 1978 2808 1402 2808 
C 1120 2808 813 2757 461 2553 
L 499 2135 
C 659 2248 934 2432 1395 2432 
C 1722 2432 1920 2180 1920 1782 
L 1920 1536 
C 896 1536 256 1238 256 726 
C 256 461 416 -64 947 -64 
C 1043 -64 1562 -64 1933 217 
L 1933 -19 
L 2406 -19 
L 2406 1791 
z
M 1920 816 
C 1920 701 1920 548 1728 434 
C 1562 325 1350 325 1261 325 
C 941 325 723 511 723 744 
C 723 1211 1722 1211 1920 1211 
L 1920 816 
z
" transform="scale(0.015625)"/>
       <path id="CMSS17-72" d="M 954 1363 
C 954 1965 1395 2368 1958 2368 
L 1958 2789 
C 1549 2789 1165 2585 934 2253 
L 934 2758 
L 480 2758 
L 480 0 
L 954 0 
L 954 1363 
z
" transform="scale(0.015625)"/>
       <path id="CMSS17-3d" d="M 4147 2017 
C 4243 2017 4339 2017 4339 2125 
C 4339 2240 4230 2240 4122 2240 
L 550 2240 
C 442 2240 333 2240 333 2125 
C 333 2017 429 2017 525 2017 
L 4147 2017 
z
M 4122 896 
C 4230 896 4339 896 4339 1011 
C 4339 1119 4243 1119 4147 1119 
L 525 1119 
C 429 1119 333 1119 333 1011 
C 333 896 442 896 550 896 
L 4122 896 
z
" transform="scale(0.015625)"/>
       <path id="CMSS17-30" d="M 2758 2044 
C 2758 2405 2752 3077 2490 3596 
C 2227 4096 1805 4229 1504 4229 
C 1069 4229 698 3975 506 3570 
C 301 3146 243 2709 243 2044 
C 243 1589 262 1031 493 543 
C 755 5 1197 -128 1498 -128 
C 1894 -128 2278 81 2496 518 
C 2720 974 2758 1474 2758 2044 
z
M 1498 261 
C 1011 261 864 811 819 995 
C 742 1310 730 1614 730 2114 
C 730 2506 730 2948 851 3297 
C 998 3701 1254 3840 1498 3840 
C 1971 3840 2125 3372 2176 3208 
C 2272 2873 2272 2481 2272 2114 
C 2272 1526 2272 261 1498 261 
z
" transform="scale(0.015625)"/>
       <path id="CMSS17-2e" d="M 1088 510 
L 576 510 
L 576 0 
L 1088 0 
L 1088 510 
z
" transform="scale(0.015625)"/>
       <path id="CMSS17-39" d="M 435 174 
C 614 21 845 -128 1235 -128 
C 2010 -128 2752 721 2752 2095 
C 2752 3932 1952 4229 1523 4229 
C 1094 4229 819 4041 582 3741 
C 301 3397 250 3090 250 2733 
C 250 2307 326 2045 506 1745 
C 749 1357 973 1275 1222 1275 
C 1600 1275 1978 1459 2234 1776 
C 2189 902 1798 267 1235 267 
C 1005 267 819 339 634 516 
L 435 174 
z
M 2214 2746 
C 2221 2703 2221 2622 2221 2596 
C 2221 2074 1914 1664 1466 1664 
C 1171 1664 1018 1813 902 2006 
C 762 2249 755 2485 755 2733 
C 755 2976 755 3244 934 3511 
C 1069 3703 1235 3840 1523 3840 
C 2112 3840 2208 3000 2214 2746 
z
" transform="scale(0.015625)"/>
       <path id="CMSS17-36" d="M 2496 4101 
C 2227 4210 2035 4229 1856 4229 
C 1024 4229 250 3368 250 2006 
C 250 265 986 -128 1510 -128 
C 1798 -128 2086 -39 2362 280 
C 2643 617 2752 898 2752 1389 
C 2752 2179 2362 2880 1779 2880 
C 1357 2880 992 2657 768 2376 
C 832 3258 1254 3840 1862 3840 
C 2029 3840 2246 3816 2496 3710 
L 2496 4101 
z
M 774 1369 
C 774 1420 774 1452 781 1548 
C 781 2045 1069 2491 1536 2491 
C 1837 2491 1990 2332 2106 2135 
C 2240 1886 2246 1650 2246 1388 
C 2246 1140 2246 891 2099 637 
C 1978 439 1818 267 1510 267 
C 902 267 800 1114 774 1369 
z
" transform="scale(0.015625)"/>
      </defs>
      <use xlink:href="#CMSS17-54" transform="scale(0.996264)"/>
      <use xlink:href="#CMSS17-65" transform="translate(56.012199 0) scale(0.996264)"/>
      <use xlink:href="#CMSS17-73" transform="translate(97.651021 0) scale(0.996264)"/>
      <use xlink:href="#CMSS17-74" transform="translate(133.564563 0) scale(0.996264)"/>
      <use xlink:href="#CMSS17-61" transform="translate(198.625242 0) scale(0.996264)"/>
      <use xlink:href="#CMSS17-72" transform="translate(240.944709 0) scale(0.996264)"/>
      <use xlink:href="#CMSS17-65" transform="translate(272.854481 0) scale(0.996264)"/>
      <use xlink:href="#CMSS17-61" transform="translate(314.493303 0) scale(0.996264)"/>
      <use xlink:href="#CMSS17-3d" transform="translate(390.644337 0) scale(0.996264)"/>
      <use xlink:href="#CMSS17-30" transform="translate(494.741384 0) scale(0.996264)"/>
      <use xlink:href="#CMSS17-2e" transform="translate(541.585008 0) scale(0.996264)"/>
      <use xlink:href="#CMSS17-39" transform="translate(567.609213 0) scale(0.996264)"/>
      <use xlink:href="#CMSS17-36" transform="translate(614.452836 0) scale(0.996264)"/>
     </g>
    </g>
    <g id="line2d_13">
     <path d="M 132.249459 213.990907 
L 145.249459 213.990907 
L 158.249459 213.990907 
" style="fill: none; stroke-dasharray: 11.1,4.8; stroke-dashoffset: 0; stroke: #e9a001; stroke-width: 3"/>
    </g>
    <g id="text_12">
     <!-- Val area = 0.97 -->
     <g transform="translate(168.649459 218.540907) scale(0.13 -0.13)">
      <defs>
       <path id="CMSS17-56" d="M 3910 4416 
L 3411 4416 
L 2304 1362 
C 2272 1273 2074 688 2035 484 
L 2029 484 
C 1978 726 1773 1292 1664 1604 
L 922 3672 
L 646 4416 
L 83 4416 
L 1715 0 
L 2278 0 
L 3910 4416 
z
" transform="scale(0.015625)"/>
       <path id="CMSS17-6c" d="M 947 4416 
L 474 4416 
L 474 0 
L 947 0 
L 947 4416 
z
" transform="scale(0.015625)"/>
       <path id="CMSS17-37" d="M 1389 3776 
C 1466 3776 1542 3776 1619 3776 
L 2355 3776 
C 1440 2711 915 1365 915 -32 
L 1427 -32 
C 1427 1323 1875 2696 2752 3795 
L 2752 4209 
L 250 4209 
L 250 3776 
L 1389 3776 
z
" transform="scale(0.015625)"/>
      </defs>
      <use xlink:href="#CMSS17-56" transform="scale(0.996264)"/>
      <use xlink:href="#CMSS17-61" transform="translate(59.615401 0) scale(0.996264)"/>
      <use xlink:href="#CMSS17-6c" transform="translate(104.537322 0) scale(0.996264)"/>
      <use xlink:href="#CMSS17-61" transform="translate(157.947157 0) scale(0.996264)"/>
      <use xlink:href="#CMSS17-72" transform="translate(200.266624 0) scale(0.996264)"/>
      <use xlink:href="#CMSS17-65" transform="translate(232.176397 0) scale(0.996264)"/>
      <use xlink:href="#CMSS17-61" transform="translate(273.815219 0) scale(0.996264)"/>
      <use xlink:href="#CMSS17-3d" transform="translate(349.966252 0) scale(0.996264)"/>
      <use xlink:href="#CMSS17-30" transform="translate(454.0633 0) scale(0.996264)"/>
      <use xlink:href="#CMSS17-2e" transform="translate(500.906923 0) scale(0.996264)"/>
      <use xlink:href="#CMSS17-39" transform="translate(526.931128 0) scale(0.996264)"/>
      <use xlink:href="#CMSS17-37" transform="translate(573.774752 0) scale(0.996264)"/>
     </g>
    </g>
   </g>
  </g>
 </g>
 <defs>
  <clipPath id="pce7833b341">
   <rect x="46.64375" y="10.999219" width="223.2" height="221.76"/>
  </clipPath>
 </defs>
</svg>
