<?xml version="1.0" encoding="utf-8" standalone="no"?>
<!DOCTYPE svg PUBLIC "-//W3C//DTD SVG 1.1//EN"
  "http://www.w3.org/Graphics/SVG/1.1/DTD/svg11.dtd">
<svg xmlns:xlink="http://www.w3.org/1999/xlink" width="342.285036pt" height="236.16pt" viewBox="0 0 342.285036 236.16" xmlns="http://www.w3.org/2000/svg" version="1.1">
 <metadata>
  <rdf:RDF xmlns:dc="http://purl.org/dc/elements/1.1/" xmlns:cc="http://creativecommons.org/ns#" xmlns:rdf="http://www.w3.org/1999/02/22-rdf-syntax-ns#">
   <cc:Work>
    <dc:type rdf:resource="http://purl.org/dc/dcmitype/StillImage"/>
    <dc:date>2024-05-10T17:36:11.976449</dc:date>
    <dc:format>image/svg+xml</dc:format>
    <dc:creator>
     <cc:Agent>
      <dc:title>Matplotlib v3.8.3, https://matplotlib.org/</dc:title>
     </cc:Agent>
    </dc:creator>
   </cc:Work>
  </rdf:RDF>
 </metadata>
 <defs>
  <style type="text/css">*{stroke-linejoin: round; stroke-linecap: butt}</style>
 </defs>
 <g id="figure_1">
  <g id="patch_1">
   <path d="M 0 236.16 
L 342.285036 236.16 
L 342.285036 0 
L 0 0 
z
" style="fill: #ffffff"/>
  </g>
  <g id="axes_1">
   <g id="patch_2">
    <path d="M 118.08 214.704129 
C 143.705019 214.704129 168.283952 204.523201 186.403577 186.403577 
C 204.523201 168.283952 214.704129 143.705019 214.704129 118.08 
C 214.704129 92.454981 204.523201 67.876048 186.403577 49.756423 
C 168.283952 31.636799 143.705019 21.455871 118.08 21.455871 
C 92.454981 21.455871 67.876048 31.636799 49.756423 49.756423 
C 31.636799 67.876048 21.455871 92.454981 21.455871 118.08 
C 21.455871 143.705019 31.636799 168.283952 49.756423 186.403577 
C 67.876048 204.523201 92.454981 214.704129 118.08 214.704129 
z
" clip-path="url(#pa94abbb74d)" style="fill: #2ba77b; opacity: 0.5"/>
   </g>
   <g id="patch_3">
    <path d="M 274.894582 214.704129 
C 287.076576 214.704129 298.761267 209.864172 307.375237 201.250201 
C 315.989207 192.636231 320.829165 180.95154 320.829165 168.769547 
C 320.829165 156.587553 315.989207 144.902862 307.375237 136.288892 
C 298.761267 127.674922 287.076576 122.834964 274.894582 122.834964 
C 262.712589 122.834964 251.027898 127.674922 242.413928 136.288892 
C 233.799957 144.902862 228.96 156.587553 228.96 168.769547 
C 228.96 180.95154 233.799957 192.636231 242.413928 201.250201 
C 251.027898 209.864172 262.712589 214.704129 274.894582 214.704129 
z
" clip-path="url(#pa94abbb74d)" style="fill: #e9a001; opacity: 0.5"/>
   </g>
   <g id="legend_1">
    <g id="patch_4">
     <path d="M 228.830643 61.011489 
L 324.585036 61.011489 
Q 327.585036 61.011489 327.585036 58.011489 
L 327.585036 17.7 
Q 327.585036 14.7 324.585036 14.7 
L 228.830643 14.7 
Q 225.830643 14.7 225.830643 17.7 
L 225.830643 58.011489 
Q 225.830643 61.011489 228.830643 61.011489 
z
" style="fill: #ffffff; opacity: 0.8; stroke: #cccccc; stroke-linejoin: miter"/>
    </g>
    <g id="patch_5">
     <path d="M 231.830643 31.2 
L 261.830643 31.2 
L 261.830643 20.7 
L 231.830643 20.7 
z
" style="fill: #2ba77b; opacity: 0.5"/>
    </g>
    <g id="text_1">
     <!-- Teacher -->
     <g transform="translate(273.830643 31.2) scale(0.15 -0.15)">
      <defs>
       <path id="CMSS17-54" d="M 2317 3968 
L 2848 3968 
C 2925 3968 3002 3968 3078 3968 
L 3878 3968 
L 3878 4376 
L 218 4376 
L 218 3968 
L 1018 3968 
C 1094 3968 1171 3968 1248 3968 
L 1779 3968 
L 1779 -32 
L 2317 -32 
L 2317 3968 
z
" transform="scale(0.015625)"/>
       <path id="CMSS17-65" d="M 2502 1377 
C 2502 1590 2490 2003 2285 2345 
C 2061 2713 1696 2816 1421 2816 
C 755 2816 192 2188 192 1375 
C 192 582 774 -64 1510 -64 
C 1798 -64 2150 19 2470 248 
C 2470 274 2458 414 2451 420 
C 2451 433 2432 630 2432 656 
C 2125 407 1773 325 1517 325 
C 1107 325 666 667 646 1377 
L 2502 1377 
z
M 698 1728 
C 781 2084 1062 2421 1421 2421 
C 1517 2421 1965 2421 2080 1728 
L 698 1728 
z
" transform="scale(0.015625)"/>
       <path id="CMSS17-61" d="M 2406 1791 
C 2406 2392 1978 2808 1402 2808 
C 1120 2808 813 2757 461 2553 
L 499 2135 
C 659 2248 934 2432 1395 2432 
C 1722 2432 1920 2180 1920 1782 
L 1920 1536 
C 896 1536 256 1238 256 726 
C 256 461 416 -64 947 -64 
C 1043 -64 1562 -64 1933 217 
L 1933 -19 
L 2406 -19 
L 2406 1791 
z
M 1920 816 
C 1920 701 1920 548 1728 434 
C 1562 325 1350 325 1261 325 
C 941 325 723 511 723 744 
C 723 1211 1722 1211 1920 1211 
L 1920 816 
z
" transform="scale(0.015625)"/>
       <path id="CMSS17-63" d="M 2464 2541 
C 2464 2585 2170 2714 2093 2739 
C 1882 2816 1613 2816 1542 2816 
C 710 2816 211 2093 211 1363 
C 211 595 768 -64 1517 -64 
C 1946 -64 2253 76 2502 242 
L 2464 664 
C 2189 453 1869 337 1523 337 
C 1024 337 698 774 698 1369 
C 698 1831 909 2414 1549 2414 
C 1901 2414 2099 2343 2394 2145 
L 2464 2541 
z
" transform="scale(0.015625)"/>
       <path id="CMSS17-68" d="M 2618 1891 
C 2618 2292 2522 2820 1798 2820 
C 1395 2820 1133 2623 947 2407 
L 947 4448 
L 474 4448 
L 474 32 
L 960 32 
L 960 1573 
C 960 1973 1114 2432 1549 2432 
C 2112 2432 2131 2056 2131 1839 
L 2131 32 
L 2618 32 
L 2618 1891 
z
" transform="scale(0.015625)"/>
       <path id="CMSS17-72" d="M 954 1363 
C 954 1965 1395 2368 1958 2368 
L 1958 2789 
C 1549 2789 1165 2585 934 2253 
L 934 2758 
L 480 2758 
L 480 0 
L 954 0 
L 954 1363 
z
" transform="scale(0.015625)"/>
      </defs>
      <use xlink:href="#CMSS17-54" transform="scale(0.996264)"/>
      <use xlink:href="#CMSS17-65" transform="translate(56.012199 0) scale(0.996264)"/>
      <use xlink:href="#CMSS17-61" transform="translate(97.651021 0) scale(0.996264)"/>
      <use xlink:href="#CMSS17-63" transform="translate(142.572941 0) scale(0.996264)"/>
      <use xlink:href="#CMSS17-68" transform="translate(184.211763 0) scale(0.996264)"/>
      <use xlink:href="#CMSS17-65" transform="translate(232.416706 0) scale(0.996264)"/>
      <use xlink:href="#CMSS17-72" transform="translate(274.055528 0) scale(0.996264)"/>
     </g>
    </g>
    <g id="patch_6">
     <path d="M 231.830643 52.105745 
L 261.830643 52.105745 
L 261.830643 41.605745 
L 231.830643 41.605745 
z
" style="fill: #e9a001; opacity: 0.5"/>
    </g>
    <g id="text_2">
     <!-- Student -->
     <g transform="translate(273.830643 52.105745) scale(0.15 -0.15)">
      <defs>
       <path id="CMSS17-53" d="M 2797 4169 
C 2515 4334 2208 4480 1690 4480 
C 864 4480 333 3879 333 3266 
C 333 3025 403 2753 653 2475 
C 902 2196 1184 2121 1542 2033 
C 1690 1994 1939 1924 1984 1906 
C 2342 1767 2515 1444 2515 1140 
C 2515 742 2202 318 1645 318 
C 1453 318 890 318 358 819 
L 269 318 
C 794 -64 1363 -128 1651 -128 
C 2438 -128 3002 488 3002 1186 
C 3002 1440 2925 1763 2656 2061 
C 2394 2347 2163 2410 1638 2549 
C 1338 2626 1146 2677 986 2873 
C 877 3013 819 3146 819 3317 
C 819 3673 1126 4060 1690 4060 
C 1971 4060 2336 4002 2707 3660 
L 2797 4169 
z
" transform="scale(0.015625)"/>
       <path id="CMSS17-74" d="M 1069 2368 
L 1901 2368 
L 1901 2737 
L 1069 2737 
L 1069 3520 
L 614 3520 
L 614 2737 
L 109 2737 
L 109 2368 
L 602 2368 
L 602 749 
C 602 384 685 -64 1107 -64 
C 1427 -64 1722 25 2003 172 
L 1901 548 
C 1747 414 1562 337 1363 337 
C 1082 337 1069 696 1069 856 
L 1069 2368 
z
" transform="scale(0.015625)"/>
       <path id="CMSS17-75" d="M 2618 2739 
L 2131 2739 
L 2131 972 
C 2131 498 1786 306 1421 306 
C 998 306 960 447 960 709 
L 960 2739 
L 474 2739 
L 474 678 
C 474 179 646 -64 1088 -64 
C 1306 -64 1798 -13 2144 306 
L 2144 0 
L 2618 0 
L 2618 2739 
z
" transform="scale(0.015625)"/>
       <path id="CMSS17-64" d="M 2611 4416 
L 2138 4416 
L 2138 2438 
C 1939 2603 1613 2756 1254 2756 
C 672 2756 211 2131 211 1347 
C 211 562 666 -64 1235 -64 
C 1677 -64 1971 172 2125 306 
L 2125 -13 
L 2611 -13 
L 2611 4416 
z
M 2125 836 
C 2125 747 2125 653 1926 482 
C 1798 375 1645 325 1498 325 
C 1152 325 698 576 698 1340 
C 698 2134 1210 2368 1562 2368 
C 1798 2368 1990 2254 2125 2065 
L 2125 836 
z
" transform="scale(0.015625)"/>
       <path id="CMSS17-6e" d="M 2618 1877 
C 2618 2283 2522 2816 1798 2816 
C 1389 2816 1120 2606 941 2389 
L 941 2758 
L 474 2758 
L 474 0 
L 960 0 
L 960 1559 
C 960 1964 1114 2428 1549 2428 
C 2112 2428 2131 2048 2131 1829 
L 2131 0 
L 2618 0 
L 2618 1877 
z
" transform="scale(0.015625)"/>
      </defs>
      <use xlink:href="#CMSS17-53" transform="scale(0.996264)"/>
      <use xlink:href="#CMSS17-74" transform="translate(52.048516 0) scale(0.996264)"/>
      <use xlink:href="#CMSS17-75" transform="translate(85.880083 0) scale(0.996264)"/>
      <use xlink:href="#CMSS17-64" transform="translate(134.085026 0) scale(0.996264)"/>
      <use xlink:href="#CMSS17-65" transform="translate(182.289969 0) scale(0.996264)"/>
      <use xlink:href="#CMSS17-6e" transform="translate(223.928791 0) scale(0.996264)"/>
      <use xlink:href="#CMSS17-74" transform="translate(272.133734 0) scale(0.996264)"/>
     </g>
    </g>
   </g>
  </g>
 </g>
 <defs>
  <clipPath id="pa94abbb74d">
   <rect x="7.2" y="7.2" width="327.885036" height="221.76"/>
  </clipPath>
 </defs>
</svg>
